<svg xmlns="http://www.w3.org/2000/svg" width="100%" viewBox="0 0 800 140">
  <defs>
    <marker id="sa" viewBox="0 0 10 10" refX="8" refY="5"
            markerWidth="5" markerHeight="5" orient="auto-start-reverse">
      <path d="M2 1L8 5L2 9" fill="none" stroke="#C9A84C"
            stroke-width="1.8" stroke-linecap="round" stroke-linejoin="round"/>
    </marker>
  </defs>

  <!-- ── SIGNAL LINE ── -->
  <line x1="0"   y1="105" x2="500" y2="105"
        stroke="#C9A84C" stroke-width="1.3" opacity="0.4"/>
  <line x1="0" y1="105" x2="25" y2="105"
        stroke="#C9A84C" stroke-width="1" opacity="0.15"
        stroke-dasharray="3 5"/>
  <line x1="500" y1="105" x2="500" y2="78"
        stroke="#C9A84C" stroke-width="2" stroke-linecap="round"/>
  <line x1="500" y1="78" x2="541" y2="78"
        stroke="#C9A84C" stroke-width="2" stroke-linecap="round"
        marker-end="url(#sa)"/>

  <!-- ── CHIP (skewY -9, right-side-up, 48px wide) ── -->
  <g transform="translate(598,60) skewY(-9) translate(-598,-60)">

    <rect x="574" y="12" width="48" height="96" rx="3"
          fill="#111" stroke="#383838" stroke-width="1"/>
    <path d="M590 12 Q598 9 606 12" fill="none" stroke="#444" stroke-width="1"/>
    <circle cx="579" cy="18" r="1.2" fill="#555"/>

    <text x="598" y="93" text-anchor="middle" dominant-baseline="central"
          font-family="monospace,'Courier New',Courier"
          font-size="6" font-weight="bold" fill="#C9A84C">INTR ?!</text>

    <!-- left pins 1-17 and 19-20 -->
    <g stroke="#4a4a4a" stroke-width="1" stroke-linecap="round" fill="none">
      <polyline points="574,16.0  564,16.0  562,20"/>
      <polyline points="574,20.5  564,20.5  562,24.5"/>
      <polyline points="574,25.0  564,25.0  562,29"/>
      <polyline points="574,29.5  564,29.5  562,33.5"/>
      <polyline points="574,34.0  564,34.0  562,38"/>
      <polyline points="574,38.5  564,38.5  562,42.5"/>
      <polyline points="574,43.0  564,43.0  562,47"/>
      <polyline points="574,47.5  564,47.5  562,51.5"/>
      <polyline points="574,52.0  564,52.0  562,56"/>
      <polyline points="574,56.5  564,56.5  562,60.5"/>
      <polyline points="574,61.0  564,61.0  562,65"/>
      <polyline points="574,65.5  564,65.5  562,69.5"/>
      <polyline points="574,70.0  564,70.0  562,74"/>
      <polyline points="574,74.5  564,74.5  562,78.5"/>
      <polyline points="574,79.0  564,79.0  562,83"/>
      <polyline points="574,83.5  564,83.5  562,87.5"/>
      <polyline points="574,88.0  564,88.0  562,92"/>
      <polyline points="574,97.0  564,97.0  562,101"/>
      <polyline points="574,101.5 564,101.5 562,105.5"/>
    </g>

    <!-- pin 18: gold, exits left, routes up to signal y=78 -->
    <polyline points="574,92.5 548,92.5 548,78"
              fill="none" stroke="#C9A84C" stroke-width="1.8"
              stroke-linecap="round" stroke-linejoin="round"/>
    <circle cx="548" cy="78" r="1.8" fill="#C9A84C"/>

    <!-- right pins 21-40 -->
    <g stroke="#4a4a4a" stroke-width="1" stroke-linecap="round" fill="none">
      <polyline points="622,16.0  632,16.0  634,20"/>
      <polyline points="622,20.5  632,20.5  634,24.5"/>
      <polyline points="622,25.0  632,25.0  634,29"/>
      <polyline points="622,29.5  632,29.5  634,33.5"/>
      <polyline points="622,34.0  632,34.0  634,38"/>
      <polyline points="622,38.5  632,38.5  634,42.5"/>
      <polyline points="622,43.0  632,43.0  634,47"/>
      <polyline points="622,47.5  632,47.5  634,51.5"/>
      <polyline points="622,52.0  632,52.0  634,56"/>
      <polyline points="622,56.5  632,56.5  634,60.5"/>
      <polyline points="622,61.0  632,61.0  634,65"/>
      <polyline points="622,65.5  632,65.5  634,69.5"/>
      <polyline points="622,70.0  632,70.0  634,74"/>
      <polyline points="622,74.5  632,74.5  634,78.5"/>
      <polyline points="622,79.0  632,79.0  634,83"/>
      <polyline points="622,83.5  632,83.5  634,87.5"/>
      <polyline points="622,88.0  632,88.0  634,92"/>
      <polyline points="622,92.5  632,92.5  634,96.5"/>
      <polyline points="622,97.0  632,97.0  634,101"/>
      <polyline points="622,101.5 632,101.5 634,105.5"/>
    </g>

  </g>

  <!-- ── STICK FIGURES ── -->

  <!-- Figure 0: lying down far left -->
  <g stroke="#111" stroke-width="1.5" stroke-linecap="round" fill="none">
    <circle cx="30" cy="103" r="4" fill="#111" stroke="none"/>
    <line x1="34" y1="104" x2="50" y2="105"/>
    <line x1="40" y1="104" x2="38" y2="96"/>
    <line x1="40" y1="104" x2="43" y2="108"/>
    <line x1="50" y1="105" x2="53" y2="98"/>
    <line x1="50" y1="105" x2="55" y2="107"/>
  </g>

  <!-- Figure 1 x=195: hand on chin -->
  <g stroke="#111" stroke-width="1.5" stroke-linecap="round" fill="none">
    <circle cx="195" cy="89" r="4.5" fill="#111" stroke="none"/>
    <line x1="195" y1="93.5" x2="195" y2="103"/>
    <line x1="195" y1="97"   x2="189" y2="100"/>
    <line x1="195" y1="97"   x2="201" y2="94"/>
    <line x1="195" y1="103"  x2="191" y2="111"/>
    <line x1="195" y1="103"  x2="199" y2="111"/>
  </g>

  <!-- Figure 2 x=230: shrugging -->
  <g stroke="#111" stroke-width="1.5" stroke-linecap="round" fill="none">
    <circle cx="230" cy="88" r="4.5" fill="#111" stroke="none"/>
    <line x1="230" y1="92.5" x2="230" y2="102"/>
    <line x1="230" y1="96"   x2="223" y2="92"/>
    <line x1="230" y1="96"   x2="237" y2="92"/>
    <line x1="230" y1="102"  x2="226" y2="111"/>
    <line x1="230" y1="102"  x2="234" y2="111"/>
  </g>

  <!-- Figure 3 x=265: peering down -->
  <g stroke="#111" stroke-width="1.5" stroke-linecap="round" fill="none">
    <circle cx="268" cy="88" r="4.5" fill="#111" stroke="none"/>
    <line x1="267" y1="92.5" x2="264" y2="102"/>
    <line x1="266" y1="96"   x2="259" y2="99"/>
    <line x1="266" y1="96"   x2="272" y2="93"/>
    <line x1="264" y1="102"  x2="260" y2="111"/>
    <line x1="264" y1="102"  x2="268" y2="111"/>
  </g>

  <!-- Figure 4: pusher at x~490, leaning into rising edge -->
  <g stroke="#111" stroke-width="1.5" stroke-linecap="round" fill="none">
    <circle cx="492" cy="85" r="4.5" fill="#111" stroke="none"/>
    <line x1="491" y1="89.5" x2="483" y2="101"/>
    <line x1="489" y1="93"   x2="499" y2="88"/>
    <line x1="487" y1="97"   x2="499" y2="94"/>
    <line x1="483" y1="101"  x2="476" y2="111"/>
    <line x1="483" y1="101"  x2="485" y2="111"/>
    <line x1="502" y1="85"   x2="506" y2="83" stroke-width="1" opacity="0.55"/>
    <line x1="502" y1="89"   x2="507" y2="89" stroke-width="1" opacity="0.55"/>
    <line x1="502" y1="93"   x2="506" y2="95" stroke-width="1" opacity="0.55"/>
  </g>

  <!-- ── LABELS ── -->
  <text x="14" y="30"
        font-family="monospace,'Courier New',Courier"
        font-size="16" font-weight="bold" fill="#C9A84C"
        opacity="0.9">INTR</text>
  <text x="14" y="50"
        font-family="monospace,'Courier New',Courier"
        font-size="8.5" fill="#777"
        letter-spacing="8">interrupt request pending</text>

</svg>
