<svg xmlns="http://www.w3.org/2000/svg" width="100%" viewBox="0 0 800 140">
  <defs>
    <linearGradient id="fade" x1="0" y1="0" x2="1" y2="0">
      <stop offset="0%"   stop-color="white" stop-opacity="0"/>
      <stop offset="12%"  stop-color="white" stop-opacity="1"/>
      <stop offset="88%"  stop-color="white" stop-opacity="1"/>
      <stop offset="100%" stop-color="white" stop-opacity="0"/>
    </linearGradient>
    <mask id="edgefade">
      <rect x="0" y="0" width="800" height="140" fill="url(#fade)"/>
    </mask>
    <marker id="sa" viewBox="0 0 10 10" refX="8" refY="5"
            markerWidth="5" markerHeight="5" orient="auto-start-reverse">
      <path d="M2 1L8 5L2 9" fill="none" stroke="#C9A84C"
            stroke-width="1.8" stroke-linecap="round" stroke-linejoin="round"/>
    </marker>
  </defs>

  <g mask="url(#edgefade)">
    <rect x="0" y="0" width="800" height="140" fill="white"/>

    <g transform="translate(80,0)">

      <!-- SIGNAL LINE — flat, interrupt deasserted -->
      <line x1="0"   y1="105" x2="560" y2="105"
            stroke="#C9A84C" stroke-width="2.8" opacity="0.4"/>
      <line x1="0" y1="105" x2="25" y2="105"
            stroke="#C9A84C" stroke-width="2" opacity="0.15"
            stroke-dasharray="3 5"/>

      <!-- CHIP -->
      <g transform="translate(598,60) skewY(-9) translate(-598,-60)">
        <rect x="574" y="12" width="48" height="96" rx="3"
              fill="#111" stroke="#383838" stroke-width="1"/>
        <path d="M590 12 Q598 9 606 12" fill="none" stroke="#444" stroke-width="1"/>
        <circle cx="579" cy="18" r="1.2" fill="#555"/>
        <!-- Left pins — all 20, including pin 18 at 92.5 -->
        <g stroke="#4a4a4a" stroke-width="1" stroke-linecap="round" fill="none">
          <polyline points="574,16.0  564,16.0  562,20"/>
          <polyline points="574,20.5  564,20.5  562,24.5"/>
          <polyline points="574,25.0  564,25.0  562,29"/>
          <polyline points="574,29.5  564,29.5  562,33.5"/>
          <polyline points="574,34.0  564,34.0  562,38"/>
          <polyline points="574,38.5  564,38.5  562,42.5"/>
          <polyline points="574,43.0  564,43.0  562,47"/>
          <polyline points="574,47.5  564,47.5  562,51.5"/>
          <polyline points="574,52.0  564,52.0  562,56"/>
          <polyline points="574,56.5  564,56.5  562,60.5"/>
          <polyline points="574,61.0  564,61.0  562,65"/>
          <polyline points="574,65.5  564,65.5  562,69.5"/>
          <polyline points="574,70.0  564,70.0  562,74"/>
          <polyline points="574,74.5  564,74.5  562,78.5"/>
          <polyline points="574,79.0  564,79.0  562,83"/>
          <polyline points="574,83.5  564,83.5  562,87.5"/>
          <polyline points="574,88.0  564,88.0  562,92"/>
          <polyline points="574,92.5  564,92.5  562,96.5"/>
          <polyline points="574,97.0  564,97.0  562,101"/>
          <polyline points="574,101.5 564,101.5 562,105.5"/>
        </g>
        <!-- Right pins -->
        <g stroke="#4a4a4a" stroke-width="1" stroke-linecap="round" fill="none">
          <polyline points="622,16.0  632,16.0  634,20"/>
          <polyline points="622,20.5  632,20.5  634,24.5"/>
          <polyline points="622,25.0  632,25.0  634,29"/>
          <polyline points="622,29.5  632,29.5  634,33.5"/>
          <polyline points="622,34.0  632,34.0  634,38"/>
          <polyline points="622,38.5  632,38.5  634,42.5"/>
          <polyline points="622,43.0  632,43.0  634,47"/>
          <polyline points="622,47.5  632,47.5  634,51.5"/>
          <polyline points="622,52.0  632,52.0  634,56"/>
          <polyline points="622,56.5  632,56.5  634,60.5"/>
          <polyline points="622,61.0  632,61.0  634,65"/>
          <polyline points="622,65.5  632,65.5  634,69.5"/>
          <polyline points="622,70.0  632,70.0  634,74"/>
          <polyline points="622,74.5  632,74.5  634,78.5"/>
          <polyline points="622,79.0  632,79.0  634,83"/>
          <polyline points="622,83.5  632,83.5  634,87.5"/>
          <polyline points="622,88.0  632,88.0  634,92"/>
          <polyline points="622,92.5  632,92.5  634,96.5"/>
          <polyline points="622,97.0  632,97.0  634,101"/>
          <polyline points="622,101.5 632,101.5 634,105.5"/>
        </g>
      </g>

      <!-- STICK FIGURES — walking left, handlers departing -->
      <g stroke="#111" stroke-width="1.5" stroke-linecap="round" fill="none">
        <circle cx="30" cy="88" r="4.5" fill="#111" stroke="none"/>
        <line x1="29" y1="92.5" x2="32" y2="102"/>
        <line x1="30" y1="96"   x2="24" y2="99"/>
        <line x1="30" y1="96"   x2="35" y2="93"/>
        <line x1="32" y1="102"  x2="26" y2="111"/>
        <line x1="32" y1="102"  x2="36" y2="111"/>
      </g>
      <g stroke="#111" stroke-width="1.5" stroke-linecap="round" fill="none">
        <circle cx="75" cy="88" r="4.5" fill="#111" stroke="none"/>
        <line x1="74" y1="92.5" x2="77" y2="102"/>
        <line x1="75" y1="96"   x2="69" y2="93"/>
        <line x1="75" y1="96"   x2="80" y2="99"/>
        <line x1="77" y1="102"  x2="71" y2="111"/>
        <line x1="77" y1="102"  x2="81" y2="111"/>
      </g>
      <g stroke="#111" stroke-width="1.5" stroke-linecap="round" fill="none">
        <circle cx="120" cy="88" r="4.5" fill="#111" stroke="none"/>
        <line x1="119" y1="92.5" x2="122" y2="102"/>
        <line x1="120" y1="96"   x2="114" y2="99"/>
        <line x1="120" y1="96"   x2="125" y2="93"/>
        <line x1="122" y1="102"  x2="116" y2="111"/>
        <line x1="122" y1="102"  x2="126" y2="111"/>
      </g>
      <g stroke="#111" stroke-width="1.5" stroke-linecap="round" fill="none">
        <circle cx="170" cy="88" r="4.5" fill="#111" stroke="none"/>
        <line x1="169" y1="92.5" x2="172" y2="102"/>
        <line x1="170" y1="96"   x2="164" y2="93"/>
        <line x1="170" y1="96"   x2="175" y2="99"/>
        <line x1="172" y1="102"  x2="166" y2="111"/>
        <line x1="172" y1="102"  x2="176" y2="111"/>
      </g>
      <g stroke="#111" stroke-width="1.5" stroke-linecap="round" fill="none">
        <circle cx="225" cy="88" r="4.5" fill="#111" stroke="none"/>
        <line x1="226" y1="92.5" x2="223" y2="102"/>
        <line x1="225" y1="96"   x2="219" y2="93"/>
        <line x1="225" y1="96"   x2="233" y2="89"/>
        <line x1="223" y1="102"  x2="217" y2="111"/>
        <line x1="223" y1="102"  x2="228" y2="111"/>
      </g>
      <circle cx="241" cy="82" r="2" fill="#111"/>
      <path d="M234 89 Q238 79 241 82"
            fill="none" stroke="#111" stroke-width="0.8"
            stroke-dasharray="2 2" opacity="0.5"/>

      <!-- LABELS -->
      <text x="14" y="31"
            font-family="monospace,'Courier New',Courier"
            font-size="19.2" font-weight="bold" fill="#C9A84C"
            opacity="0.9">INTR</text>
      <text x="14" y="52"
            font-family="monospace,'Courier New',Courier"
            font-size="8.5" fill="#777"
            letter-spacing="8">interrupt request pending</text>

    </g>
  </g>
</svg>
